<svg xmlns="http://www.w3.org/2000/svg" viewBox="0 0 960 600" role="img" aria-labelledby="title desc">
  <title id="title">Conceptual Plinko preview poster</title><desc id="desc">A glowing ball above a field of pegs and colored result slots.</desc>
  <defs><radialGradient id="bg"><stop stop-color="#6b3a00"/><stop offset="1" stop-color="#12080c"/></radialGradient><filter id="glow"><feGaussianBlur stdDeviation="10" result="b"/><feMerge><feMergeNode in="b"/><feMergeNode in="SourceGraphic"/></feMerge></filter></defs>
  <rect width="960" height="600" fill="url(#bg)"/><g fill="#fff" opacity=".42">
    <circle cx="480" cy="130" r="5"/><circle cx="430" cy="180" r="5"/><circle cx="530" cy="180" r="5"/><circle cx="380" cy="230" r="5"/><circle cx="480" cy="230" r="5"/><circle cx="580" cy="230" r="5"/><circle cx="330" cy="280" r="5"/><circle cx="430" cy="280" r="5"/><circle cx="530" cy="280" r="5"/><circle cx="630" cy="280" r="5"/><circle cx="280" cy="330" r="5"/><circle cx="380" cy="330" r="5"/><circle cx="480" cy="330" r="5"/><circle cx="580" cy="330" r="5"/><circle cx="680" cy="330" r="5"/>
  </g><circle cx="480" cy="82" r="15" fill="#fff1a3" filter="url(#glow)"/><g transform="translate(280 410)"><rect width="48" height="30" fill="#ff5c9a"/><rect x="52" width="48" height="30" fill="#ad78ff"/><rect x="104" width="48" height="30" fill="#59b7ff"/><rect x="156" width="48" height="30" fill="#63ef9b"/><rect x="208" width="48" height="30" fill="#ffd43b"/><rect x="260" width="48" height="30" fill="#63ef9b"/><rect x="312" width="48" height="30" fill="#59b7ff"/><rect x="364" width="48" height="30" fill="#ff5c9a"/></g>
</svg>